<svg xmlns="http://www.w3.org/2000/svg" width="56.685" height="56.685" viewBox="0 0 56.685 56.685">
  <g>
    <path fill="rgb(103,199,236)" fill-rule="evenodd" d="M29.92792511 2.77441406V0h-3.3693695v2.77441406h3.3693695zM21.00901031.79296875c-.99098968.39648438-1.981987.79296875-3.1711731 1.18945313l.9909897 2.57617187C19.81981658 4.16210937 20.81080626 3.765625 22 3.56738281L21.00901031.79296875zm17.63964081.99121094c-1.18919372-.39648438-2.1801834-.59472656-3.1711731-.99121094l-.99098968 2.57617188c1.1891861.39648437 2.18018341.79296875 3.1711731 1.18945312l.99098968-2.77441406zM10.30630493 6.34277344c.79279328-.59472657 1.78378296-1.38769532 2.77477265-1.98242188l1.58558654 2.37792969c-.99098968.59472656-1.98197937 1.18945313-2.77477264 1.78417969l-1.58558655-2.1796875zm33.29730225-1.98242188c.79279327.59472657 1.78378296 1.38769532 2.57657623 1.98242188l-1.58558655 2.1796875c-.79279327-.59472657-1.78378296-1.38769532-2.57657623-1.98144532l1.58558655-2.18066406zm-37.2612648 5.94628907c-.59459687.79296874-1.38739014 1.78417968-1.98198319 2.77441406l2.1801796 1.5859375c.59459686-.99121094 1.38738632-1.78417969 1.98198318-2.77441407l-2.1801796-1.5859375zm45.78378677 2.57617187c-.59459686-.79199219-1.18919373-1.78320313-1.98197937-2.57617188l-2.18018341 1.5859375c.59459686.7919922 1.38739014 1.78320313 1.98197937 2.77441407l2.18018341-1.78417969zM.79279327 21.20703125c.39639664-1.18847656.59459305-2.1796875 1.18918991-3.17089844l2.57657624.79296875C4.16216278 19.8203125 3.76576614 20.81054687 3.56756973 22l-2.77477646-.79296875zm53.90991211-3.17089844c.39640045.99121094.79279328 1.98242188.99098969 3.17089844L53.11711884 22c-.39639283-1.18945313-.59459687-2.1796875-.99098969-3.17089844l2.57657623-.79296875zM0 26.55859375v3.36914063h2.77477646v-3.36914063H0zm56.68467712 1.78417969c0-.59472656 0-1.18945313-.1981964-1.78417969h-2.77477265c.19819641.59472656.19819641 1.18945313.19819641 1.78417969v1.58496094h2.57657623c.19819641-.59472657.19819641-1.18847657.19819641-1.58496094zM1.98198318 38.6484375c-.59459686-.99121094-.79279327-2.1796875-1.1891899-3.17089844l2.77477645-.79296875c.19819641.99121094.59459305 1.98242188.99098969 2.97265625l-2.57657624.99121094zm53.71171189-3.17089844c-.19819641.99121094-.59458924 2.1796875-.99098969 3.17089844l-2.57657623-.99121094c.39639282-.99023437.59459686-1.98144531.99098969-2.97265625l2.57657623.79296875zM4.36035919 43.60351563c.59459305.99023437 1.38738632 1.78320312 1.98198319 2.57617187l2.1801796-1.5859375c-.59459687-.79199219-1.18918992-1.78320313-1.78378297-2.57617188l-2.37837982 1.5859375zm45.78379059 2.57617187c.79278564-.79296875 1.3873825-1.78417969 1.98197937-2.57617188l-2.18018341-1.5859375c-.59458923.79296875-1.1891861 1.7841797-1.98197937 2.57617188l2.18018341 1.5859375zm-37.0630722 5.94628906c-.99098969-.59472656-1.98197937-1.18945312-2.77477265-1.98144531l1.58558655-2.18066406c.79279327.79296875 1.78378296 1.38769531 2.77477264 1.98242187l-1.58558654 2.1796875zm33.09910583-1.98144531c-.79279327.79199219-1.78378296 1.38671875-2.57657623 1.98144531l-1.58558655-2.1796875c.79279327-.59472656 1.78378296-1.18945312 2.57657623-1.98242187l1.58558655 2.18066406zm-28.14414978 4.55761719c.99098969.39648437 1.98197937.79296875 3.1711731.99121093L22 53.1171875c-1.18919373-.39648438-2.18018341-.59472656-3.1711731-.99121094l-.79279327 2.57617188zm17.4414444.99121093c.99098968-.19824218 2.18017578-.59472656 3.1711731-.99121093l-.79279328-2.57617188c-1.18919373.39648438-2.18018341.59472657-3.1711731.99121094l.79279328 2.57617188zm-5.54955292.79296875c-.59459686.1982422-1.1891861.1982422-1.58558655.1982422-.59459686 0-1.1891861 0-1.78378296-.1982422v-2.57617187h1.78378296c.39640045 0 .99098969 0 1.58558655-.19824219v2.77441407z"/>
    <path fill="rgb(255,255,255)" fill-rule="evenodd" d="M29.92792511 7.33300781v-3.765625h-3.3693695v3.765625c.59459686-.19824218 1.18918609-.19824218 1.78378295-.19824218.39640045 0 .99098969 0 1.58558655.19824218zM19.02702331 5.3515625l1.1891861 3.56738281c.99099732-.59472656 1.981987-.79296875 3.1711731-1.18945312l-1.1891861-3.56738282c-1.18919372.39648438-2.18018341.79296876-3.1711731 1.18945313zm15.261261-1.18945313L33.0990982 7.7294922c1.1891861.39648437 2.1801834.59472656 3.1711731.99121093L37.4594574 5.3515625c-.99098969-.59472656-1.98197937-.79296875-3.1711731-1.18945313zm-19.62161256 8.12597657l-2.1801834-2.97265625c.79279327-.79296875 1.58558654-1.38769532 2.57657623-1.98242188l2.1801834 2.97265625c-.9909973.59472657-1.78379058 1.18945313-2.57657623 1.98242188zm24.5765686-1.98242188l2.18018342-2.97265625c.99098968.59472657 1.78378296 1.18945313 2.77477264 1.98242188L42.018013 12.28808594c-.99098968-.79296875-1.78378296-1.38769532-2.77477264-1.98242188zm8.12612916 1.98242188l-3.1711731 2.37792968c.79279328.79296876 1.38739014 1.5859375 1.98197937 2.57714844L49.15315247 15.0625c-.59459687-.99023438-1.18919373-1.78320313-1.78378296-2.77441406zM7.33333206 15.0625l2.97297287 2.18066406c.59459305-.99121094 1.18918991-1.78417969 1.98198319-2.57617187l-2.97297287-2.18066407c-.79279328.79296876-1.38739014 1.5859375-1.98198319 2.57617188zm.39639664 8.32519531L4.16216278 22.1982422c.39639664-.99023438.79279327-2.1796875 1.18918991-3.17089844l3.3693695 1.18945313c-.39639663.99121093-.59459685 1.9814453-.9909935 3.17089843zm40.03603363-3.17089844l3.56756592-1.18945312c.39640045.99121094.79279327 2.18066406.99098968 3.17089844l-3.56756592 1.18945312c-.1981964-1.18945312-.59459686-2.1796875-.99098968-3.17089844zm-44.19819641 9.7109375h3.76576614c-.19820022-.59472656-.19820022-.99121093-.19820022-1.58496093 0-.59472656 0-1.18945313.19820022-1.78417969H3.56756592v3.36914063zm49.35134887-3.36914062h-3.56756591v3.36914063h3.56756591c.19819642-.59472657.19819642-1.18847657.19819642-1.58496094 0-.59472656 0-1.18945313-.19819642-1.78417969zm-44.1981926 9.7109375l-3.3693695 1.18945313c-.39639664-.99121094-.79279327-1.98242188-1.1891899-3.17089844l3.5675659-1.18945313c.39639665 1.18945313.59459687 2.18066407.9909935 3.17089844zm40.03602982-3.17089844l3.56756592 1.18945313c-.1981964 1.18847656-.59458923 2.1796875-.99098968 3.17089843l-3.56756592-1.18945312c.39639282-.99023438.79279327-1.98144531.99098968-3.17089844zM9.31531525 44.1982422l2.97297287-2.18066407c-.79279328-.79199218-1.38739014-1.78320312-1.98198319-2.77441406l-2.97297287 2.18066407c.59459305.99023437 1.18918991 1.9814453 1.98198319 2.77441406zm38.05405426 0c.59458923-.99121094 1.3873825-1.78417969 1.98197937-2.77441407l-3.1711731-2.18066406c-.59459686.99121094-1.1891861 1.78417969-1.78378296 2.77441407l2.97297669 2.18066406zm-30.12612152 1.98242187l-2.18018341 3.17089844c-.99098969-.59472656-1.78378296-1.38769531-2.57657624-1.98242188l2.18018341-3.17089843c.79278565.79296875 1.58557892 1.38769531 2.57657624 1.98242187zM42.018013 44.1982422l2.18018341 3.17089843c-.79279327.59472657-1.78378296 1.38769532-2.77477264 1.98242188l-2.18018341-3.17089844c.99098968-.59472656 1.78378296-1.18945312 2.77477264-1.98242187zm-19.81981659 8.12597656l1.1891861-3.56738281c-1.1891861-.19824219-2.18017578-.59472657-3.1711731-.99121094l-1.1891861 3.56738281c.99098969.39648438 2.18018342.79296875 3.1711731.99121094zm15.26126099-.99121094L36.27026367 47.765625c-.99098968.39648438-1.98197937.79296875-2.97296905.99121094l.99098968 3.56738281c1.18919373-.19824219 2.18018341-.59472656 3.1711731-.99121094zM29.9279251 49.3515625v3.56738281c-.59459686.19824219-1.1891861.19824219-1.58558655.19824219-.59459686 0-1.1891861 0-1.78378296-.19824219V49.3515625h3.36936951z"/>
    <path fill="rgb(103,199,236)" fill-rule="evenodd" d="M29.92792793 10.7027027v4.36036036h.7927928l1.38738738-3.96396396c.99099099.1981982 2.18018018.5945946 3.17117117.99099099l-1.38738739 4.16216216c.3963964 0 .5945946.1981982.7927928.3963964l2.57657657-3.56756757c.990991.5945946 1.78378379 1.18918919 2.57657658 1.98198198l-2.37837838 3.56756757.5945946.5945946 3.36936936-2.57657658c.7927928.7927928 1.3873874 1.78378378 1.98198199 2.57657658l-3.36936937 2.57657657c0 .3963964.1981982.5945946.3963964.7927928l3.96396396-1.3873874c.3963964.990991.79279279 2.18018019.99099099 3.17117118l-3.96396397 1.38738739c0 .3963964 0 .59459459.1981982.79279279h4.16216216V29.92792793h-4.36036036v.7927928l3.96396397 1.38738738c-.1981982 1.18918919-.5945946 2.18018018-.990991 3.17117117l-3.96396396-1.38738739-.1981982.1981982c0 .1981982-.1981982.3963964-.1981982.5945946l3.36936938 2.57657657c-.5945946.990991-1.1891892 1.78378379-1.98198199 2.57657658l-3.36936937-2.37837838-.5945946.5945946 2.37837839 3.36936936c-.7927928.7927928-1.58558559 1.3873874-2.57657658 1.98198199l-2.57657658-3.36936937c-.1981982 0-.3963964.1981982-.79279279.3963964l1.38738739 3.96396396c-.990991.3963964-1.98198198.79279279-3.17117117.99099099l-1.38738739-3.96396397c-.1981982 0-.5945946 0-.7927928.1981982v4.16216216H26.55855857v-4.36036036h-.7927928l-1.38738738 3.96396397c-.990991-.1981982-1.98198198-.5945946-3.17117117-.990991l1.38738738-3.96396396c-.1981982-.1981982-.59459459-.3963964-.79279279-.3963964l-2.57657657 3.36936938c-.7927928-.5945946-1.78378379-1.1891892-2.57657658-1.98198199l2.57657658-3.36936937h-.1981982c-.1981982-.1981982-.3963964-.3963964-.3963964-.5945946l-3.56756757 2.37837839c-.79279279-.7927928-1.38738738-1.58558559-1.98198198-2.57657658l3.56756757-2.57657658c-.1981982-.1981982-.3963964-.3963964-.3963964-.79279279l-4.16216216 1.38738739c-.3963964-.990991-.7927928-1.98198198-.990991-3.17117117l4.16216217-1.38738739h-.1981982v-.7927928H10.7027027v-1.58558558-1.78378378h4.36036036v-.7927928l-3.96396396-1.38738738c.1981982-.990991.5945946-2.18018018.99099099-3.17117117l4.16216216 1.38738738c0-.1981982.1981982-.59459459.3963964-.79279279l-3.56756757-2.37837838c.5945946-.99099099 1.18918919-1.98198198 1.98198198-2.77477477l3.36936937 2.57657658.1981982-.1981982.5945946-.5945946-2.57657658-3.36936937c.7927928-.79279279 1.78378378-1.38738738 2.57657658-1.98198198l2.57657657 3.56756757c.3963964-.1981982.5945946-.3963964.7927928-.3963964l-1.3873874-4.16216216c.990991-.3963964 2.18018019-.7927928 3.17117118-.990991l1.38738739 4.16216217v-.1981982h.79279279V10.7027027H29.92792793z"/>
  </g>
</svg>
