<svg height='100px' width='100px'  fill="#000000" xmlns="http://www.w3.org/2000/svg" xmlns:xlink="http://www.w3.org/1999/xlink" xml:space="preserve" version="1.1" style="shape-rendering:geometricPrecision;text-rendering:geometricPrecision;image-rendering:optimizeQuality;" viewBox="0 0 333 333" x="0px" y="0px" fill-rule="evenodd" clip-rule="evenodd"><defs><style type="text/css">
   
    .fil0 {fill:#000000}
   
  </style></defs><g><g><path class="fil0" d="M175 24l0 14c-3,0 -6,0 -8,0 -3,0 -6,0 -9,0l0 -14c3,0 6,0 9,0 2,0 5,0 8,0zm28 4c5,2 10,3 16,5l-5 14c-5,-2 -10,-4 -16,-6l5 -13zm41 18c4,3 9,7 13,10l-8 11c-4,-3 -9,-7 -13,-10l8 -11zm33 30c4,4 7,9 10,13l-11 9c-3,-5 -7,-10 -10,-14l11 -8zm23 39c2,5 4,10 5,16l-13 4c-2,-6 -3,-11 -5,-16l13 -4zm9 43c1,3 1,6 1,9 0,2 0,5 -1,8l-13 0c0,-3 0,-6 0,-8 0,-3 0,-6 -1,-9l14 0zm-4 45c-1,5 -3,11 -5,16l-13 -5c2,-5 3,-10 5,-15l13 4zm-18 41c-3,4 -6,9 -10,13l-11 -8c4,-4 7,-9 10,-13l11 8zm-30 33c-4,4 -9,7 -13,10l-8 -11c4,-3 9,-6 13,-10l8 11zm-38 23c-5,2 -11,4 -16,5l-4 -13c5,-2 10,-3 16,-5l4 13zm-44 9c-3,1 -6,1 -8,1 -3,0 -6,0 -9,-1l0 -13c3,0 6,0 9,0 2,0 5,0 8,-1l0 14zm-44 -4c-6,-1 -11,-3 -16,-5l4 -13c5,2 10,3 16,5l-4 13zm-41 -18c-5,-3 -10,-6 -14,-10l8 -11c4,4 9,7 14,10l-8 11zm-34 -30c-3,-4 -7,-8 -10,-13l12 -8c3,4 6,9 9,13l-11 8zm-22 -38c-3,-5 -4,-11 -6,-16l14 -4c1,5 3,10 5,15l-13 5zm-10 -44c0,-3 0,-5 0,-8 0,-3 0,-6 0,-9l14 0c0,3 0,6 0,9 0,3 0,5 0,8l-14 0zm4 -44c2,-6 3,-11 6,-16l13 4c-2,5 -4,10 -5,16l-14 -4zm18 -41c3,-5 7,-10 10,-14l11 8c-3,5 -7,9 -10,14l-11 -8zm30 -34c4,-3 9,-7 14,-10l8 12c-5,3 -10,6 -14,9l-8 -11zm38 -22c6,-2 11,-4 16,-6l5 14c-6,1 -11,3 -16,5l-5 -13z"></path><path class="fil0" d="M175 42l0 19c-3,-1 -6,-1 -8,-1 -3,0 -6,0 -9,1l0 -19c3,0 6,0 9,0 2,0 5,0 8,0zm16 21l6 -18c6,2 11,3 16,6l-6 17c-5,-2 -10,-3 -16,-5zm31 13l11 -15c5,3 9,6 14,10l-11 15c-5,-4 -9,-7 -14,-10zm25 22l16 -12c3,5 6,9 9,14l-15 11c-3,-5 -6,-9 -10,-13zm18 28l18 -6c2,5 4,11 5,16l-18 6c-1,-6 -3,-11 -5,-16zm8 32l18 0c1,3 1,6 1,9 0,2 0,5 -1,8l-18 0c0,-3 0,-6 0,-8 0,-3 0,-6 0,-9zm-3 33l18 6c-1,6 -3,11 -5,16l-18 -6c2,-5 4,-10 5,-16zm-13 31l16 11c-3,5 -7,9 -10,14l-15 -11c3,-5 6,-9 9,-14zm-21 25l11 16c-4,3 -9,7 -14,10l-11 -16c5,-3 9,-6 14,-10zm-29 18l6 18c-5,2 -10,4 -16,5l-5 -18c5,-1 10,-3 15,-5zm-32 8l0 18c-3,1 -6,1 -8,1 -3,0 -6,0 -9,-1l0 -18c3,0 6,0 9,0 2,0 5,0 8,0zm-33 -3l-6 18c-5,-1 -11,-3 -16,-5l6 -18c5,2 10,4 16,5zm-31 -13l-11 16c-5,-3 -9,-7 -13,-10l11 -16c4,4 8,7 13,10zm-25 -21l-15 11c-4,-4 -7,-9 -10,-14l15 -11c3,5 6,10 10,14zm-18 -29l-17 6c-2,-5 -4,-10 -6,-16l18 -6c2,6 3,11 5,16zm-7 -32l-19 0c0,-3 0,-5 0,-8 0,-3 0,-6 0,-9l19 0c-1,3 -1,6 -1,9 0,3 0,5 1,8zm2 -33l-18 -6c2,-5 4,-11 6,-16l17 6c-2,5 -3,10 -5,16zm13 -31l-15 -11c3,-5 6,-9 10,-13l15 11c-4,4 -7,8 -10,13zm22 -25l-11 -15c4,-4 8,-7 13,-10l11 15c-5,3 -9,6 -13,10zm28 -17l-6 -18c5,-2 10,-4 16,-6l6 18c-6,2 -11,3 -16,6z"></path><path class="fil0" d="M175 78l0 22 0 0c2,0 3,0 4,0l7 -20c5,1 11,3 16,5l-7 21 0 0c2,0 3,1 4,2l13 -18c5,3 9,6 13,10l-12 18 0 0c1,1 2,2 3,3l17 -13c4,4 7,9 10,13l-17 13 0 0c0,2 1,3 2,4l20 -7c2,5 4,11 5,16l-20 7 0 0c0,2 0,3 1,4l21 0c0,3 0,6 0,9 0,2 0,5 0,8l-22 0 0 0c0,2 0,3 0,4l20 7c-1,6 -3,11 -5,16l-20 -7 -1 1c0,1 -1,2 -1,3l17 13c-3,5 -6,9 -10,13l-17 -12 0 0c-1,1 -2,2 -3,3l12 17c-4,4 -8,7 -13,10l-13 -17 0 0c-1,0 -2,1 -4,2l7 20c-5,2 -10,4 -16,5l-7 -20 0 0c-1,0 -3,0 -4,1l0 21c-3,0 -6,0 -8,0 -3,0 -6,0 -9,0l0 -22 0 0c-1,0 -3,0 -4,0l-7 20c-5,-1 -10,-3 -16,-5l7 -20 0 0c-1,-1 -3,-2 -4,-2l-13 17c-4,-3 -9,-6 -13,-10l13 -17 -1 0c-1,-1 -2,-2 -2,-3l-18 12c-4,-4 -7,-8 -10,-13l18 -13 0 0c-1,-1 -2,-2 -2,-4l-21 7c-2,-5 -4,-10 -5,-16l21 -7 -1 0c0,-1 0,-3 0,-4l-22 0c0,-3 0,-5 0,-8 0,-3 0,-6 0,-9l22 0 0 0c0,-1 0,-3 0,-4l-20 -7c1,-5 3,-11 5,-16l21 7 0 0c0,-1 1,-3 2,-4l-18 -12c3,-5 6,-10 10,-14l17 13 1 -1c1,-1 2,-2 3,-3l-13 -17c4,-4 9,-7 13,-10l13 18 0 0c2,-1 3,-2 4,-2l-7 -21c5,-2 11,-4 16,-5l7 21 0 -1c2,0 3,0 4,0l0 -22c3,0 6,0 9,0 2,0 5,0 8,0z"></path></g></g></svg>