<svg xmlns="http://www.w3.org/2000/svg" width="40" height="40" viewBox="0 0 40 40">
  <path fill="rgb(72,186,230)" fill-rule="evenodd" d="M4.70837402 9.42773438h-.05639648C1.8297119 9.42773438 0 7.35058593 0 4.71972656 0 2.03613281 1.88378906 0 4.76245117 0c2.87634278 0 4.64489746 2.03125 4.70129395 4.71289063 0 2.6298828-1.82495117 4.71484374-4.7553711 4.71484374zM31.1595459 40H40V24.88964844c0-8.41308594-4.35314941-12.32421875-9.89416504-12.32421875-4.46606445 0-7.2647705 2.66113281-7.78222656 4.52539062v-4.26367187h-8.75817871c.11291504 2.26367187 0 27.17285156 0 27.17285156h8.7581787V25.296875l-.00097655-.29296875c-.00378418-.71875-.00732422-1.41308594.19152832-1.92773438.60205078-1.63671874 1.89562988-3.32910156 4.22155761-3.32910156 3.04089356 0 4.42382813 2.50976563 4.42382813 6.19042969V40zM1.00891113 12.82617187h7.79638672v27.17089844H1.00891113V12.82617188z"/>
</svg>
