<svg xmlns="http://www.w3.org/2000/svg" width="40" height="34" viewBox="0 0 40 34">
  <path fill="rgb(72,186,230)" fill-rule="evenodd" d="M35.2879028 5.37527084C36.98303692 4.31445905 38.2837354 2.6323848 38.8941715.6286292c-1.58713388.98468872-3.34096378 1.69680774-5.21218523 2.08233425C32.18876563 1.04116712 30.05458707 0 27.6926689 0c-4.5313142 0-8.20332218 3.84298714-8.20332218 8.58226203 0 .6728297.0680871 1.32847031.20895697 1.95464394-6.81810178-.3585151-12.8637671-3.77177525-16.9137759-8.96778854-.70669719 1.27199192-1.11052415 2.74534162-1.11052415 4.31691464 0 2.9761664 1.44861184 5.60364004 3.6508775 7.14574606-1.34530727-.04420049-2.61078828-.43463816-3.7189646-1.0730897v.10559006c0 4.15975733 2.82678875 7.62949589 6.58566649 8.4152824-.69026237.20135779-1.41339438.30203668-2.16470036.30203668-.52826202 0-1.04478488-.05156724-1.5425251-.15224613 1.04243705 3.40834898 4.07348712 5.89339881 7.66566884 5.95969955-2.81035393 2.3033367-6.34853554 3.67355193-10.1919352 3.67355193-.6620884 0-1.3171333-.03683374-1.95809121-.11786798C3.63209485 32.57821754 7.94506075 34 12.57967952 34c15.09655456 0 23.34683336-13.0784342 23.34683336-24.42077134 0-.3732486-.00469566-.7440416-.02113048-1.10992345C37.5089511 7.25870287 38.90356283 5.74606385 40 4.02470027c-1.47209016.68265203-3.05452838 1.1443016-4.7120972 1.35057057z"/>
</svg>
